G04*
G04 #@! TF.GenerationSoftware,Altium Limited,Altium Designer,25.8.1 (18)*
G04*
G04 Layer_Color=2752767*
%FSLAX44Y44*%
%MOMM*%
G71*
G04*
G04 #@! TF.SameCoordinates,3626E668-9AFA-4856-9140-0BF2693DF0B8*
G04*
G04*
G04 #@! TF.FilePolarity,Positive*
G04*
G01*
G75*
%ADD11C,0.1270*%
D11*
X234921Y310000D02*
X240000Y315080D01*
X245081Y310000D01*
X240000Y304920D01*
X234921Y310000D01*
X224921D02*
X230000Y315080D01*
X235081Y310000D01*
X230000Y304920D01*
X224921Y310000D01*
X214921D02*
X220000Y315080D01*
X225081Y310000D01*
X220000Y304920D01*
X214921Y310000D01*
X194921D02*
X200000Y315080D01*
X205081Y310000D01*
X200000Y304920D01*
X194921Y310000D01*
X184921D02*
X190000Y315080D01*
X195081Y310000D01*
X190000Y304920D01*
X184921Y310000D01*
X194921Y320000D02*
X200000Y325080D01*
X205081Y320000D01*
X200000Y314920D01*
X194921Y320000D01*
X184921D02*
X190000Y325080D01*
X195081Y320000D01*
X190000Y314920D01*
X184921Y320000D01*
X204921Y310000D02*
X210000Y315080D01*
X215081Y310000D01*
X210000Y304920D01*
X204921Y310000D01*
X234921Y320000D02*
X240000Y325080D01*
X245081Y320000D01*
X240000Y314920D01*
X234921Y320000D01*
X224921D02*
X230000Y325080D01*
X235081Y320000D01*
X230000Y314920D01*
X224921Y320000D01*
X214921D02*
X220000Y325080D01*
X225081Y320000D01*
X220000Y314920D01*
X214921Y320000D01*
X204921D02*
X210000Y325080D01*
X215081Y320000D01*
X210000Y314920D01*
X204921Y320000D01*
M02*
