G04*
G04 #@! TF.GenerationSoftware,Altium Limited,Altium Designer,25.8.1 (18)*
G04*
G04 Layer_Color=128*
%FSLAX44Y44*%
%MOMM*%
G71*
G04*
G04 #@! TF.SameCoordinates,3626E668-9AFA-4856-9140-0BF2693DF0B8*
G04*
G04*
G04 #@! TF.FilePolarity,Positive*
G04*
G01*
G75*
%ADD11C,0.1270*%
D11*
X238751Y310000D02*
X241250D01*
X240000Y308750D02*
Y311250D01*
X228750Y310000D02*
X231250D01*
X230000Y308750D02*
Y311250D01*
X218750Y310000D02*
X221250D01*
X220000Y308750D02*
Y311250D01*
X198750Y310000D02*
X201250D01*
X200000Y308750D02*
Y311250D01*
X188750Y310000D02*
X191250D01*
X190000Y308750D02*
Y311250D01*
X198750Y320000D02*
X201250D01*
X200000Y318750D02*
Y321250D01*
X188750Y320000D02*
X191250D01*
X190000Y318750D02*
Y321250D01*
X208750Y310000D02*
X211250D01*
X210000Y308750D02*
Y311250D01*
X238751Y320000D02*
X241250D01*
X240000Y318750D02*
Y321250D01*
X228750Y320000D02*
X231250D01*
X230000Y318750D02*
Y321250D01*
X218750Y320000D02*
X221250D01*
X220000Y318750D02*
Y321250D01*
X208750Y320000D02*
X211250D01*
X210000Y318750D02*
Y321250D01*
M02*
