G04*
G04 #@! TF.GenerationSoftware,Altium Limited,Altium Designer,25.8.1 (18)*
G04*
G04 Layer_Physical_Order=3*
G04 Layer_Color=128*
%FSLAX44Y44*%
%MOMM*%
G71*
G04*
G04 #@! TF.SameCoordinates,96774F70-ACF1-4580-82D6-532519850CFD*
G04*
G04*
G04 #@! TF.FilePolarity,Negative*
G04*
G01*
G75*
%ADD62C,1.0160*%
%ADD63C,2.1160*%
%ADD64C,2.7160*%
G04:AMPARAMS|DCode=65|XSize=2.624mm|YSize=2.624mm|CornerRadius=0mm|HoleSize=0mm|Usage=FLASHONLY|Rotation=0.000|XOffset=0mm|YOffset=0mm|HoleType=Round|Shape=Relief|Width=0.254mm|Gap=0.254mm|Entries=4|*
%AMTHD65*
7,0,0,2.6240,2.1160,0.2540,45*
%
%ADD65THD65*%
%ADD66C,1.8160*%
%ADD67C,2.3160*%
%ADD68C,2.0160*%
%ADD69C,1.5160*%
G04:AMPARAMS|DCode=72|XSize=3.224mm|YSize=3.224mm|CornerRadius=0mm|HoleSize=0mm|Usage=FLASHONLY|Rotation=0.000|XOffset=0mm|YOffset=0mm|HoleType=Round|Shape=Relief|Width=0.254mm|Gap=0.254mm|Entries=4|*
%AMTHD72*
7,0,0,3.2240,2.7160,0.2540,45*
%
%ADD72THD72*%
D62*
X0Y0D02*
X635000D01*
Y555000D01*
X0D02*
X635000D01*
X0Y0D02*
Y555000D01*
D63*
X30000Y290400D02*
D03*
Y366600D02*
D03*
Y315800D02*
D03*
Y341200D02*
D03*
D64*
X145000Y450000D02*
D03*
X490000Y500000D02*
D03*
D65*
X30000Y265000D02*
D03*
D66*
X560000Y228400D02*
D03*
X534600D02*
D03*
X509200D02*
D03*
X483800D02*
D03*
X407600D02*
D03*
X433000D02*
D03*
X458400D02*
D03*
X382200Y330000D02*
D03*
X407600D02*
D03*
X560000D02*
D03*
X483800D02*
D03*
X458400D02*
D03*
D67*
X221100Y446900D02*
D03*
X246500Y523100D02*
D03*
X373500D02*
D03*
X373500Y446900D02*
D03*
D68*
X45000Y420000D02*
D03*
Y530000D02*
D03*
X590000D02*
D03*
Y420000D02*
D03*
D69*
X490000Y115000D02*
D03*
X195000Y240000D02*
D03*
X150000Y330000D02*
D03*
X535000Y105000D02*
D03*
X90000Y175000D02*
D03*
X65000Y285000D02*
D03*
X290000Y390000D02*
D03*
X70000Y200000D02*
D03*
X225000D02*
D03*
X260000Y300000D02*
D03*
X246306Y276954D02*
D03*
X275000Y240000D02*
D03*
X220000Y220000D02*
D03*
X175000Y240000D02*
D03*
X510000Y115000D02*
D03*
X160000Y315000D02*
D03*
X425000Y120000D02*
D03*
X470000Y115000D02*
D03*
X215000Y240000D02*
D03*
X240000Y120000D02*
D03*
X95000Y210000D02*
D03*
X100000Y325000D02*
D03*
X145000Y345000D02*
D03*
X585000Y105000D02*
D03*
D72*
X490000Y450000D02*
D03*
X145000Y500000D02*
D03*
M02*
